<svg xmlns="http://www.w3.org/2000/svg" width="44" height="44" viewBox="0 0 44 44">
  <defs>
    <style>
      .cls-1 {
        fill-rule: evenodd;
      }
    </style>
  </defs>
  <path id="Forma_1" data-name="Forma 1" class="cls-1" d="M660,1818a5.974,5.974,0,0,1-6-5.94V1802H643.941a6,6,0,0,1,0-12H654v-10.06a6,6,0,0,1,12,0V1790h10.059a6,6,0,0,1,0,12H666v10.06A5.974,5.974,0,0,1,660,1818Zm-16.059-26a4,4,0,0,0,0,8H656v12.06a4,4,0,0,0,8,0V1800h12.059a4,4,0,0,0,0-8H664v-12.06a4,4,0,0,0-8,0V1792H643.941Z" transform="translate(-638 -1774)"/>
</svg>
